<?xml version="1.0" encoding="UTF-8"?>
<!DOCTYPE svg PUBLIC "-//W3C//DTD SVG 1.1//EN" "http://www.w3.org/Graphics/SVG/1.1/DTD/svg11.dtd">
<!-- Creator: CorelDRAW 2023 -->
<svg xmlns="http://www.w3.org/2000/svg" xml:space="preserve" width="106.793mm" height="90.2136mm" version="1.1" style="shape-rendering:geometricPrecision; text-rendering:geometricPrecision; image-rendering:optimizeQuality; fill-rule:evenodd; clip-rule:evenodd"
viewBox="0 0 10665.04 9009.32"
 xmlns:xlink="http://www.w3.org/1999/xlink"
 xmlns:xodm="http://www.corel.com/coreldraw/odm/2003">
 <defs>
  <style type="text/css">
   <![CDATA[
    .str0 {stroke:#30B5EC;stroke-width:7.61;stroke-miterlimit:22.9256}
    .fil0 {fill:#1134C9;fill-rule:nonzero}
    .fil2 {fill:#30B5EC;fill-rule:nonzero}
    .fil1 {fill:white;fill-rule:nonzero}
   ]]>
  </style>
 </defs>
 <g id="Capa_x0020_1">
  <metadata id="CorelCorpID_0Corel-Layer"/>
  <path class="fil0" d="M5331.72 0c-2945.28,0 -5331.72,2386.43 -5331.72,5331.72 0,221.62 14.46,438.42 41.75,653.62l10581.53 0c25.7,-213.59 41.75,-431.99 41.75,-653.62 -1.61,-2945.28 -2388.03,-5331.72 -5333.32,-5331.72z"/>
  <path class="fil1" d="M5264.28 9009.32c1785.8,0 3258.45,-1339.36 3470.43,-3068.95l-6940.87 0c211.98,1729.59 1684.63,3068.95 3470.43,3068.95z"/>
  <circle class="fil1" cx="5295.59" cy="5475.45" r="3533.86"/>
  <g id="_105553178275584">
   <polygon class="fil1" points="1501.56,4450.06 1090.44,4356.92 1350.61,4554.44 1324.91,4668.46 1005.34,4732.71 1416.45,4825.85 1368.27,5041.04 586.18,4862.79 639.17,4628.33 1045.47,4543.21 716.25,4289.47 769.24,4056.61 1549.74,4234.87 "/>
   <polygon class="fil1" points="1687.85,3936.16 961.96,3597.3 1055.11,3398.17 1781,3737.03 "/>
   <polygon class="fil1" points="2606.45,2625.71 2302.92,2331.82 2423.37,2635.35 2341.46,2718.86 2034.73,2608.05 2338.26,2901.93 2185.69,3059.31 1610.77,2502.06 1777.78,2330.23 2168.03,2468.33 2018.68,2081.3 2185.7,1909.47 2760.62,2466.72 "/>
   <path class="fil1" d="M3221.53 1939.98c22.48,-12.85 38.54,-28.91 48.18,-48.18 9.64,-19.27 14.45,-38.55 16.06,-61.03 0,-20.88 -3.21,-43.36 -11.23,-67.45 -8.03,-24.1 -17.67,-46.58 -30.52,-69.06l-207.16 -354.92 189.51 -110.8 207.16 354.91c27.3,48.19 48.18,96.36 61.02,146.14 12.85,49.78 14.46,96.35 6.42,142.93 -8.03,44.96 -27.29,88.32 -56.2,128.48 -28.9,40.15 -70.66,75.47 -123.65,107.6 -54.6,32.12 -107.6,49.78 -157.38,54.6 -49.78,4.82 -96.35,-1.61 -139.71,-17.66 -43.36,-16.06 -83.51,-41.75 -118.84,-75.48 -35.33,-33.72 -67.45,-75.48 -94.75,-120.45l-207.16 -354.91 189.51 -110.81 207.16 354.92c12.85,22.48 28.91,43.36 44.96,61.02 16.06,19.27 35.33,32.13 54.61,43.36 19.27,9.64 38.54,16.06 59.42,16.06 19.26,-1.61 41.74,-6.42 62.63,-19.27z"/>
   <polygon class="fil1" points="4021.28,1361.84 4127.27,1740.84 3915.29,1800.26 3701.69,1027.81 3867.1,981.24 4286.25,1287.97 4177.05,896.12 4389.04,836.7 4602.62,1609.16 4434.01,1655.73 "/>
   <polygon class="fil1" points="4930.23,1578.64 4874.03,778.88 5094.04,764.43 5148.65,1564.19 "/>
   <path class="fil2 str0" d="M5938.76 1597.91l194.32 -777.27 298.71 75.48c64.23,16.06 118.84,40.15 162.2,73.87 43.36,32.12 77.09,70.67 101.17,114.02 24.09,43.36 38.54,89.94 43.36,141.32 4.81,51.39 1.61,102.78 -12.85,157.38 -14.45,59.42 -36.93,110.81 -67.45,152.57 -30.51,43.36 -67.45,77.09 -110.81,102.77 -43.36,25.7 -89.93,41.75 -142.93,48.19 -52.99,6.42 -109.2,3.21 -168.61,-12.85l-297.11 -75.47zm571.72 -271.41c8.03,-30.51 9.64,-57.81 8.03,-85.12 -1.61,-27.3 -8.03,-51.39 -19.27,-72.26 -11.24,-20.88 -25.7,-40.15 -44.96,-54.61 -19.27,-16.06 -43.36,-25.69 -69.06,-33.71l-85.12 -20.88 -101.17 404.7 85.12 20.87c27.3,6.42 54.6,8.03 78.69,3.22 24.09,-4.82 46.57,-14.45 65.84,-28.91 19.27,-14.45 36.93,-33.72 49.78,-56.2 14.45,-22.48 25.7,-48.18 32.12,-77.09z"/>
   <polygon class="fil2" points="6892.69,1891.8 7233.15,1167.52 7432.29,1260.67 7091.82,1984.95 "/>
   <path class="fil2" d="M7862.68 2404.1c-73.87,4.82 -141.32,-16.06 -202.35,-59.42 -41.75,-30.52 -75.48,-67.45 -102.78,-110.81 -27.3,-43.36 -44.96,-89.93 -51.39,-138.11 -8.03,-49.78 -4.82,-101.17 9.64,-154.17 12.85,-52.99 40.16,-106 78.69,-158.99 33.72,-44.96 73.87,-81.9 118.84,-107.6 44.96,-25.7 94.74,-43.36 144.54,-49.78 51.39,-6.42 102.77,-3.22 155.78,9.64 52.99,12.85 102.77,36.93 147.74,72.26 28.91,20.88 54.61,44.97 77.09,70.67 22.48,25.7 40.15,53 52.99,83.51 12.85,28.91 22.49,59.42 28.91,89.93 6.43,30.52 6.42,61.03 1.61,91.54l-205.56 3.22c6.42,-35.33 1.61,-69.06 -11.24,-102.78 -14.45,-33.72 -35.33,-62.63 -64.23,-83.51 -20.88,-16.06 -43.36,-25.69 -67.45,-30.51 -24.1,-4.82 -48.19,-3.21 -72.27,1.61 -24.09,6.42 -46.57,16.06 -70.66,32.12 -22.49,16.07 -43.36,35.33 -61.03,61.03 -19.27,25.7 -32.12,51.39 -40.15,77.09 -8.03,25.7 -11.24,51.39 -9.65,75.48 1.62,24.09 9.65,48.18 20.88,69.05 11.24,20.88 28.91,40.16 51.39,57.81 51.39,38.55 112.42,51.4 183.09,36.94l-110.81 -83.51 94.75 -126.87 264.98 195.93 -253.74 342.06 -146.13 -107.6 38.53 -56.21z"/>
   <polygon class="fil2" points="8172.63,2787.91 8768.42,2253.14 8916.18,2416.95 8320.37,2951.73 "/>
   <polygon class="fil2" points="9375.47,3423.86 9255.02,3227.94 8734.7,3545.92 8620.68,3358.02 9141.01,3040.05 9020.56,2842.51 9184.37,2742.94 9539.28,3324.3 "/>
   <path class="fil2 str0" d="M9762.51 3852.65l65.84 189.5 -664.86 525.14 -73.87 -210.37 131.68 -97.97 -70.66 -200.74 -163.81 6.42 -73.87 -211.99 849.54 0.01zm-414.34 326l210.38 -149.35 -258.55 11.23 48.18 138.12z"/>
   <polygon class="fil2" points="9206.85,4819.43 10003.39,4731.1 10027.48,4949.51 9422.05,5016.96 9462.2,5378.29 9271.09,5399.18 "/>
  </g>
  <path class="fil0" d="M3266.91 5760.96c-20.45,-528.7 129.03,-1003.08 460.53,-1417.18 25.47,-31.94 106.02,-130.09 227.47,-241.83 192.65,-177.16 360.83,-270.91 449.14,-315.47 38.7,-19.55 58.09,-29.32 68.65,-31.28 262.15,-46.92 598.69,632.48 645.28,726.48 61.4,124.03 146.77,319.27 278.22,484.47 72.75,91.39 155.99,173.65 155.99,173.65 47.59,47.17 101.65,95.47 167.32,147.42 259.49,205.35 537.64,320.93 691.05,607.81 22.23,41.44 68.81,136.99 59.36,258.19 -8.06,103.02 -58.74,249.9 -155.15,274.64 -81.37,20.94 -164.97,-53.43 -208.12,-91.62 -417.26,-368.82 -652.51,-576.61 -886.68,-682.66 -71.2,-32.26 -317.98,-136.76 -609.82,-89.26 -244.44,39.67 -433.77,174.07 -634.55,316.59 0,0 -306.08,217.31 -606.56,279.24 -6.49,1.36 -25.89,5.45 -39.32,-5.15 -7.85,-6.09 -11.16,-16.69 -14.34,-31.77 -25.01,-119.39 -45.11,-239.45 -48.47,-362.29z"/>
  <path class="fil0" d="M4611.42 7624.73c0,0 -136.02,-37.8 -342.03,-172.61 -9.93,-6.51 -30.62,-21.01 -33.07,-42.83 -1.71,-16.14 7.6,-29.58 12.79,-37.38 182.47,-273.85 427.44,-440.51 764.6,-447.76 183.24,-3.9 348.2,58 501.58,154.02 215.74,135.14 395.86,309.79 558.65,503.8 3.52,4.15 15.33,15.15 13.78,28.17 -1.22,9.53 -9.95,23.39 -49.77,36.57 -322.16,107.04 -625.56,100.6 -626.28,100.6 0,0 -180.67,0 -328.97,-11.56 -100.67,-7.9 -224.19,-42.28 -471.28,-111.01z"/>
  <path class="fil0" d="M6470.35 4468c0,0 -201.75,-291.75 -200.92,-668.07 0.05,-9.29 0.05,-36.8 15.22,-44.79 11.72,-6.1 27.36,2.03 33.89,5.63 385.33,211.61 533.72,364.89 533.72,364.89 88.8,91.64 184.01,189.95 288.19,343.97 120.08,177.71 181.96,325.96 219.6,417.61 7.06,17.27 46.52,116.64 75.27,251.75 5.77,26.87 35.09,164.14 12.18,172.27 -12.18,4.24 -34.44,-29.88 -40.06,-38.12 -76.49,-113.14 -271.15,-204.94 -428.99,-307.15 -264.99,-171.69 -449.14,-412.65 -508.11,-498z"/>
  <path class="fil2" d="M7086.52 5587.36c-246.08,-352.03 -436.33,-369.96 -775.01,-811.02 -68.99,-89.77 -125.7,-164.11 -189.52,-276.21 -103.32,-180.9 -127.4,-288.41 -270.04,-732.32 -46.76,-145.49 -129.12,-398.3 -244.6,-592.8 -20.94,-35.28 -109.46,-178.8 -255.99,-253.89 -21.98,-11.33 -39.53,-18.17 -50.81,-22.81 -106.72,-43.98 -216.85,-49.75 -270.35,-49.84 -23.46,0 -88.8,0.97 -184.64,22.32 0,0 -94.33,20.27 -178.38,55.63 -37.89,15.88 -368.36,154.76 -372.97,310.34 -4.57,150.03 330.22,220.88 688.16,507.11 458.66,366.7 321.67,602.02 878.71,1139.34 201.91,194.75 304.33,245.27 531.96,500.54 291.77,327.09 366.63,516.56 396.11,674.9 20.94,112.98 54.24,310.73 -62.25,478.61 -76.86,111.01 -185.19,157.37 -220.64,170.71 -272.38,103.12 -562.44,-88.45 -593.7,-109.78 -52.39,-35.83 -145.65,-110.62 -251.83,-195.72 -52.73,-42.28 -78.84,-63.7 -99.88,-81.07 -46.21,-38.02 -53.78,-45.53 -105.17,-84.36 -277.48,-210.07 -387.52,-253.4 -442.98,-273.92 -245.99,-91.07 -471.57,-93.76 -698.07,76.88 -338.37,255.02 -718.56,429.25 -1141.52,499.29 -128.38,21.36 -259.01,30.23 -384.96,64.12 -55.4,14.89 -85.3,27.84 -105.98,55.3 -35.99,47.56 -18.01,115.65 -4.31,167.72 0,0 33.02,126.41 195.23,305.02 2.94,3.26 5.24,5.7 6.79,7.5 21.59,23.37 45.09,45.53 66.36,64.35 23.71,22.39 43.4,38.67 56.68,48.3 9.21,6.58 19.29,13.92 30.15,21.5 32.19,23.2 60.35,40.8 82.98,53.59 91.27,53.19 212.77,103.04 357.73,93.51 3.13,-0.16 5.96,-0.74 9.06,-0.97 153.06,-7.18 282.16,-88.06 324.86,-117.13 26.71,-18.24 47.89,-35.11 65.89,-51.71 175.34,-123.89 205.81,-231.91 431.25,-424.79 232.64,-199.04 502.08,-300.13 813.41,-247.44 193.85,32.75 358.06,130.83 511.76,248.18 120.27,91.97 238.95,186.05 360.07,277.02 134.56,100.93 281.49,176.51 446.51,216.67 250.58,61 476.92,20.94 666.04,-161.37 90.64,-87.45 141.99,-169.97 164.62,-209.8 181.73,-320.19 117.63,-707.57 109.88,-750.92 -13.02,-73.05 -56.27,-275.38 -290.62,-610.55z"/>
 </g>
</svg>
